<?xml version="1.0" encoding="UTF-8" standalone="no"?>
<svg
   xmlns:dc="http://purl.org/dc/elements/1.1/"
   xmlns:cc="http://creativecommons.org/ns#"
   xmlns:rdf="http://www.w3.org/1999/02/22-rdf-syntax-ns#"
   xmlns:svg="http://www.w3.org/2000/svg"
   xmlns="http://www.w3.org/2000/svg"
   xmlns:xlink="http://www.w3.org/1999/xlink"
   xmlns:sodipodi="http://sodipodi.sourceforge.net/DTD/sodipodi-0.dtd"
   xmlns:inkscape="http://www.inkscape.org/namespaces/inkscape"
   width="314.58957mm"
   height="262.99585mm"
   viewBox="0 0 314.58957 262.99585"
   version="1.1"
   id="svg8"
   sodipodi:docname="lose.svg"
   inkscape:version="1.0.2 (1.0.2+r75+1)">
  <sodipodi:namedview
     pagecolor="#ffffff"
     bordercolor="#666666"
     borderopacity="1"
     objecttolerance="10"
     gridtolerance="10"
     guidetolerance="10"
     inkscape:pageopacity="0"
     inkscape:pageshadow="2"
     inkscape:window-width="1600"
     inkscape:window-height="845"
     id="namedview1783"
     showgrid="false"
     showguides="true"
     inkscape:guide-bbox="true"
     inkscape:zoom="0.54115914"
     inkscape:cx="605.2456"
     inkscape:cy="536.97869"
     inkscape:window-x="0"
     inkscape:window-y="27"
     inkscape:window-maximized="1"
     inkscape:current-layer="svg8" />
  <defs
     id="defs2" />
  <metadata
     id="metadata5">
    <rdf:RDF>
      <cc:Work
         rdf:about="">
        <dc:format>image/svg+xml</dc:format>
        <dc:type
           rdf:resource="http://purl.org/dc/dcmitype/StillImage" />
        <dc:title />
      </cc:Work>
    </rdf:RDF>
  </metadata>
  <use
     x="0"
     y="0"
     xlink:href="#path95"
     id="use1591"
     transform="matrix(-1,0,0,1,314.58957,0)"
     width="100%"
     height="100%" />
  <path
     style="fill:#ffff00;fill-opacity:1;stroke:#000000;stroke-width:0.529167;stroke-miterlimit:4;stroke-dasharray:none;stroke-opacity:1"
     d="m 257.17499,222.24999 v -7.40833 h 4.7625 4.7625 v -11.1125 -11.1125 h 4.7625 4.7625 v -9.26042 -9.26041 h -4.7625 -4.7625 v -1.85209 -1.85208 h -4.7625 -4.7625 v -9.26042 -9.26041 h 4.7625 4.7625 v -11.1125 -11.1125 h 4.7625 4.7625 v -12.96458 -12.96459 h 19.05 19.05 v 12.96459 12.96458 h -4.7625 -4.7625 v 5.55625 5.55625 h -4.7625 -4.7625 v 9.26041 9.26042 h -4.7625 -4.7625 v 5.55625 5.55625 h 4.7625 4.7625 v 1.85208 1.85209 h 4.7625 4.7625 v 9.26041 9.26042 h -4.7625 -4.7625 v 7.40833 7.40834 h -4.7625 -4.7625 v 3.70416 3.70417 h -4.7625 -4.7625 v 3.70417 3.70416 h -4.7625 -4.7625 v 3.70417 3.70417 h -4.7625 -4.7625 z"
     id="path95" />
  <use
     x="0"
     y="0"
     xlink:href="#path127"
     id="use1686"
     transform="translate(95.249995,133.35)"
     width="100%"
     height="100%" />
  <use
     x="0"
     y="0"
     xlink:href="#path127"
     id="use1684"
     transform="translate(38.1)"
     width="100%"
     height="100%" />
  <use
     x="0"
     y="0"
     xlink:href="#path123"
     id="use1680"
     transform="translate(38.100001,133.35)"
     width="100%"
     height="100%" />
  <use
     x="0"
     y="0"
     xlink:href="#path123"
     id="use1678"
     transform="translate(114.3)"
     width="100%"
     height="100%" />
  <path
     style="fill:#000000;stroke-width:0.264583"
     d="M 238.125,37.041665 V 18.520832 h 4.76249 4.7625 v 3.704167 3.704166 h 4.7625 4.7625 v 1.852084 1.852083 h 4.7625 4.7625 v 3.704166 3.704167 h -4.7625 -4.7625 v -1.852083 -1.852084 h -4.7625 -4.7625 v 11.1125 11.1125 h -4.7625 -4.76249 z"
     id="path135" />
  <path
     style="fill:#000000;stroke-width:0.264583"
     d="M 142.875,53.710414 V 51.858331 H 138.1125 133.35 V 38.893748 25.929165 h -4.7625 -4.7625 v -3.704166 -3.704167 h 4.7625 4.7625 V 9.260416 0 h 4.7625 4.7625 v 9.260416 9.260416 h 4.7625 4.7625 v 3.704167 3.704166 h -4.7625 -4.7625 v 11.1125 11.1125 h 4.7625 4.7625 v 3.704166 3.704167 h -4.7625 -4.7625 z"
     id="path127" />
  <path
     id="path123"
     style="fill:#000000;stroke-width:0.264583"
     d="m 95.250001,53.710414 v -1.852083 h -4.7625 -4.7625 V 37.041665 22.224999 h 4.7625 4.7625 v -1.852083 -1.852084 h 4.762499 4.7625 v 1.852084 1.852083 h 4.7625 4.7625 v 9.260416 9.260416 h -9.525 -9.524999 v 3.704167 3.704167 H 104.775 114.3 v 3.704166 3.704167 h -9.525 -9.524999 z M 104.775,29.633332 v -3.704167 h -4.7625 -4.762499 v 3.704167 3.704166 h 4.762499 4.7625 z" />
  <path
     id="path117"
     style="fill:#000000;stroke-width:0.264583"
     d="M 47.625002,27.781249 V 0 h 9.525 9.524999 v 1.852083 1.852083 h 4.7625 4.7625 v 11.1125 11.112499 h -4.7625 -4.7625 v 1.852084 1.852083 h 4.7625 4.7625 v 11.112499 11.1125 h -4.7625 -4.7625 v 1.852083 1.852084 h -9.524999 -9.525 z m 19.049999,12.964582 v -7.408333 h -4.762499 -4.7625 v 7.408333 7.408334 h 4.7625 4.762499 z m 0,-25.929165 V 7.408333 h -4.762499 -4.7625 v 7.408333 7.408333 h 4.7625 4.762499 z" />
  <path
     style="fill:#000000;stroke-width:0.264583"
     d="M 200.025,94.456246 V 66.674997 h 4.7625 4.7625 v 9.260417 9.260416 h 4.7625 4.7625 v -1.852083 -1.852084 h 4.7625 4.7625 v 3.704167 3.704166 h -4.7625 -4.7625 v 3.704167 3.704166 h 4.7625 4.7625 v 12.964581 12.96459 h -4.7625 -4.7625 V 111.125 100.0125 h -4.7625 -4.7625 v 11.1125 11.1125 h -4.7625 -4.7625 z"
     id="path115" />
  <path
     style="fill:#000000;stroke-width:0.264583"
     d="M 161.925,103.71666 V 85.19583 H 176.2125 190.5 v 3.704166 3.704167 h -9.525 -9.525 v 11.112497 11.1125 h 9.525 9.525 v 3.70417 3.70417 H 176.2125 161.925 Z"
     id="path113" />
  <path
     style="fill:#000000;stroke-width:0.264583"
     d="m 123.825,120.38541 v -1.85208 H 119.0625 114.3 V 101.86458 85.19583 h 4.7625 4.7625 v 14.81667 14.81666 h 4.7625 4.7625 V 100.0125 85.19583 h 4.7625 4.7625 v 14.81667 14.81666 h 4.7625 4.7625 v 3.70417 3.70417 h -4.7625 -4.7625 v -1.85209 -1.85208 h -4.7625 -4.7625 v 1.85208 1.85209 h -4.7625 -4.7625 z"
     id="path111" />
  <path
     style="fill:#000000;stroke-width:0.264583"
     d="M 76.200001,94.456246 V 66.674997 h 4.7625 4.7625 v 24.077083 24.07708 h 9.525 9.524999 v 3.70417 3.70417 h -14.287499 -14.2875 z"
     id="path109" />
  <path
     style="fill:#000000;stroke-width:0.264583"
     d="m 161.925,183.35624 v -5.55625 h 4.7625 4.7625 v -3.70416 -3.70417 h 4.7625 4.7625 v -1.85208 -1.85209 h -4.7625 -4.7625 v -3.70416 -3.70417 h -4.7625 -4.7625 v -3.70417 -3.70416 h 4.7625 4.7625 v 1.85208 1.85208 h 4.7625 4.7625 v 3.70417 3.70417 h 4.7625 4.7625 v -3.70417 -3.70417 h 4.7625 4.7625 v -1.85208 -1.85208 h 4.7625 4.7625 v 3.70416 3.70417 h -4.7625 -4.7625 v 3.70417 3.70416 H 195.2625 190.5 v 1.85209 1.85208 h 4.7625 4.7625 v 3.70417 3.70416 h 4.7625 4.7625 v 5.55625 5.55625 h -4.7625 -4.7625 v -3.70416 -3.70417 H 195.2625 190.5 v -3.70417 -3.70416 h -4.7625 -4.7625 v 3.70416 3.70417 h -4.7625 -4.7625 v 3.70417 3.70416 h -4.7625 -4.7625 z"
     id="path105" />
  <path
     style="fill:#000000;stroke-width:0.264583"
     d="M 76.200001,161.13124 V 133.35 h 4.7625 4.7625 v 5.55625 5.55624 h 4.7625 4.7625 v 5.55625 5.55625 h 4.762499 4.7625 V 144.46249 133.35 h 4.7625 4.7625 v 27.78124 27.78125 h -4.7625 -4.7625 v -5.55625 -5.55625 h -4.7625 -4.762499 v -5.55625 -5.55625 h -4.7625 -4.7625 v 11.1125 11.1125 h -4.7625 -4.7625 z"
     id="path99" />
  <g
     id="g1888">
    <g
       id="g1851">
      <use
         x="0"
         y="0"
         xlink:href="#path123"
         id="use1682"
         transform="translate(124.32907,200.025)"
         width="100%"
         height="100%" />
      <path
         style="fill:#000000;stroke-width:0.264583"
         d="m 133.35,237.06666 v -18.52083 h 4.7625 4.7625 v 3.70416 3.70417 h 4.7625 4.7625 v -1.85208 -1.85209 h 4.7625 4.7625 v 1.85209 1.85208 h 9.525 9.525 v -1.85208 -1.85209 h 4.7625 4.7625 v 1.85209 1.85208 h 4.7625 4.7625 v 14.81667 14.81666 H 195.2625 190.5 v -12.96458 -12.96458 h -4.7625 -4.7625 v 1.85208 1.85208 h -4.7625 -4.7625 v 11.1125 11.1125 h -4.7625 -4.7625 V 242.62291 229.65833 H 157.1625 152.4 v 1.85208 1.85208 h -4.7625 -4.7625 v 11.1125 11.1125 h -4.7625 -4.7625 z"
         id="path87" />
      <path
         id="path85"
         style="fill:#000000;stroke-width:0.264583"
         d="m 114.3,244.47499 v -11.1125 h 4.7625 4.7625 v 11.1125 11.1125 H 119.0625 114.3 Z m 0,-22.225 v -3.70416 h 4.7625 4.7625 v 3.70416 3.70417 H 119.0625 114.3 Z" />
      <path
         style="fill:#000000;stroke-width:0.264583"
         d="m 85.724998,231.51041 v -24.07708 h -4.7625 -4.7625 v -3.70417 -3.70417 h 14.2875 14.287502 v 3.70417 3.70417 h -4.7625 -4.762502 v 24.07708 24.07708 h -4.7625 -4.7625 z"
         id="path81" />
    </g>
  </g>
  <path
     style="display:inline;fill:#000000;stroke-width:0.277608"
     d="m 57.679169,261.14376 v -1.85209 h 99.615631 99.61562 v 1.85209 1.85208 H 157.2948 57.679169 Z"
     id="path1881" />
</svg>
