<?xml version="1.0" encoding="UTF-8" standalone="no"?>
<svg
   xmlns:dc="http://purl.org/dc/elements/1.1/"
   xmlns:cc="http://creativecommons.org/ns#"
   xmlns:rdf="http://www.w3.org/1999/02/22-rdf-syntax-ns#"
   xmlns:svg="http://www.w3.org/2000/svg"
   xmlns="http://www.w3.org/2000/svg"
   width="314.32498mm"
   height="248.17896mm"
   viewBox="0 0 314.32498 248.17895"
   version="1.1"
   id="svg8">
  <defs
     id="defs2" />
  <metadata
     id="metadata5">
    <rdf:RDF>
      <cc:Work
         rdf:about="">
        <dc:format>image/svg+xml</dc:format>
        <dc:type
           rdf:resource="http://purl.org/dc/dcmitype/StillImage" />
        <dc:title></dc:title>
      </cc:Work>
    </rdf:RDF>
  </metadata>
  <g
     id="layer2"
     style="display:inline"
     transform="translate(-8.995834,-5.556249)">
    <path
       style="fill:#fdfd00;stroke-width:0.264583"
       d="m 266.17083,212.98956 v -7.40833 h 4.7625 4.7625 v -11.1125 -11.1125 h 4.7625 4.7625 v -9.26042 -9.26042 h -4.7625 -4.7625 v -1.85208 -1.85208 h -4.7625 -4.7625 v -9.26039 -9.26042 h 4.7625 4.7625 v -11.1125 -11.1125 h 4.7625 4.7625 V 107.42084 94.456253 h 19.05 19.05 v 12.964587 12.96458 h -4.7625 -4.7625 v 5.55625 5.55625 h -4.7625 -4.7625 v 9.26042 9.26042 h -4.7625 -4.7625 v 5.55625 5.55625 h 4.7625 4.7625 v 1.85208 1.85208 h 4.7625 4.7625 v 9.26042 9.26042 h -4.7625 -4.7625 v 7.40833 7.40833 h -4.7625 -4.7625 v 3.70417 3.70417 h -4.7625 -4.7625 v 3.70416 3.70417 h -4.7625 -4.7625 v 3.70417 3.70416 h -4.7625 -4.7625 z"
       id="path195" />
    <path
       style="fill:#fdfd00;stroke-width:0.264583"
       d="m 56.620831,216.69373 v -3.70417 h -4.7625 -4.7625 v -3.70417 -3.70416 h -4.7625 -4.7625 v -3.70417 -3.70417 h -4.762497 -4.7625 v -7.40833 -7.40833 h -4.7625 -4.7625 v -9.26042 -9.26042 h 4.7625 4.7625 v -1.85208 -1.85208 h 4.7625 4.762497 v -5.55625 -5.55625 h -4.762497 -4.7625 v -9.26042 -9.26042 h -4.7625 -4.7625 v -5.55625 -5.55625 h -4.7625 -4.7625 V 107.42084 94.456253 h 19.05 19.049997 v 12.964587 12.96458 h 4.7625 4.7625 v 11.1125 11.1125 h 4.7625 4.7625 v 9.26042 9.26042 h -4.7625 -4.7625 v 1.85208 1.85208 h -4.7625 -4.7625 v 9.26042 9.26042 h 4.7625 4.7625 v 11.1125 11.1125 h 4.7625 4.7625 v 7.40833 7.40833 h -4.7625 -4.7625 z"
       id="path193" />
    <path
       id="path231"
       style="fill:#e5a000;stroke-width:0.264583"
       d="m 313.79583,42.597918 v -7.408334 h -4.7625 -4.7625 v 7.408334 7.408333 h 4.7625 4.7625 z m -38.1,0 v -7.408334 h -4.7625 -4.7625 v 7.408334 7.408333 h 4.7625 4.7625 z m 0,37.041668 v -3.704167 h 4.7625 4.7625 v -9.260417 -9.260417 h -9.525 -9.525 v -1.852084 -1.852083 h -4.7625 -4.7625 v -11.1125 -11.112501 h 4.7625 4.7625 V 24.077083 16.66875 h -4.7625 -4.7625 v -5.556251 -5.55625 h 33.3375 33.3375 v 5.55625 5.556251 h -4.7625 -4.7625 v 7.408333 7.408334 h 4.7625 4.7625 v 11.112501 11.1125 h -4.7625 -4.7625 v 1.852083 1.852084 h -9.525 -9.525 v 9.260417 9.260417 h 4.7625 4.7625 v 3.704167 3.704167 h -14.2875 -14.2875 z" />
    <path
       id="path223"
       style="fill:#e5a000;stroke-width:0.264583"
       d="m 66.145831,42.597918 v -7.408334 h -4.7625 -4.7625 v 7.408334 7.408333 h 4.7625 4.7625 z m -38.099997,0 v -7.408334 h -4.7625 -4.7625 v 7.408334 7.408333 h 4.7625 4.7625 z m 0,37.041668 v -3.704167 h 4.7625 4.762497 v -9.260417 -9.260417 h -9.524997 -9.525 v -1.852084 -1.852083 h -4.7625 -4.7625 v -11.1125 -11.112501 h 4.7625 4.7625 V 24.077083 16.66875 h -4.7625 -4.7625 v -5.556251 -5.55625 h 33.337497 33.3375 v 5.55625 5.556251 h -4.7625 -4.7625 v 7.408333 7.408334 h 4.7625 4.7625 v 11.112501 11.1125 h -4.7625 -4.7625 v 1.852083 1.852084 h -9.525 -9.525 v 9.260417 9.260417 h 4.7625 4.7625 v 3.704167 3.704167 h -14.2875 -14.287497 z" />
    <path
       style="display:inline;fill:#000000;stroke-width:0.264583"
       d="M 285.22083,37.041641 V 24.077057 h -4.7625 -4.7625 V 20.37289 16.668723 h 4.7625 4.7625 V 14.81664 12.964556 h 4.7625 4.7625 v 18.520835 18.520834 h -4.7625 -4.7625 z"
       id="path311" />
    <path
       style="display:inline;fill:#000000;stroke-width:0.264583"
       d="M 37.57083,37.041641 V 24.077057 h -4.762497 -4.7625 V 20.37289 16.668723 h 4.7625 4.762497 V 14.81664 12.964556 h 4.7625 4.7625 v 18.520835 18.520834 h -4.7625 -4.7625 z"
       id="path309" />
    <path
       id="path305"
       style="display:inline;fill:#000000;stroke-width:0.264583"
       d="m 218.54583,81.756226 v -1.5875 h -4.38452 c -3.44715,0 -4.46534,-0.08081 -4.7625,-0.377976 -0.31851,-0.318484 -0.37798,-2.691164 -0.37798,-15.081224 V 50.006251 h 4.7625 4.7625 v -1.852083 -1.852084 h 5.02708 5.02709 v 1.852084 1.852083 h 4.49791 4.49792 v 9.260417 9.260417 h -9.525 -9.525 v 3.704167 3.704167 h 9.525 9.525 v 3.704167 3.704167 h -9.525 -9.525 v -1.5875 z m 9.525,-24.341668 v -3.704166 h -4.7625 -4.7625 v 3.704166 3.704167 h 4.7625 4.7625 z" />
    <path
       style="display:inline;fill:#000000;stroke-width:0.264583"
       d="m 180.44583,81.491643 v -1.852084 h -4.7625 -4.7625 V 64.822892 50.006225 h 4.7625 4.7625 v -1.852084 -1.852083 h 9.525 9.525 v 3.704167 3.704167 h -9.525 -9.525 v 11.1125 11.112501 h 9.525 9.525 v 3.704166 3.704167 h -9.525 -9.525 z"
       id="path303" />
    <path
       id="path299"
       style="display:inline;fill:#000000;stroke-width:0.264583"
       d="m 132.82083,81.756226 v -1.5875 h -4.38452 c -3.44714,0 -4.46534,-0.08081 -4.7625,-0.377976 -0.31546,-0.315431 -0.37798,-2.197274 -0.37798,-11.377057 V 57.414585 h 9.525 9.525 v -1.852084 -1.852083 h -9.525 -9.525 v -3.704167 -3.704167 h 9.525 9.525 v 1.852084 1.852083 h 4.7625 4.7625 v 12.964584 12.964584 h 4.7625 4.7625 v 3.704167 3.704167 h -4.7625 -4.7625 v -1.5875 -1.5875 h -4.49791 -4.49792 v 1.5875 1.5875 h -5.02708 -5.02709 v -1.5875 z m 9.525,-11.377084 v -5.55625 h -4.7625 -4.7625 v 5.55625 5.556251 h 4.7625 4.7625 z" />
    <path
       id="path295"
       style="display:inline;fill:#000000;stroke-width:0.264583"
       d="M 85.19583,55.562475 V 27.781224 h 9.525 9.525 v 1.852083 1.852084 h 4.7625 4.7625 v 9.260417 9.260417 h -4.7625 -4.7625 v 3.704167 3.704166 h 4.7625 4.7625 v 12.964584 12.964584 h -4.7625 -4.7625 v -11.1125 -11.112501 h -4.7625 -4.7625 v 11.112501 11.1125 h -4.7625 -4.7625 z m 19.05,-14.816667 v -5.556251 h -4.7625 -4.7625 v 5.556251 5.55625 h 4.7625 4.7625 z" />
    <path
       style="display:inline;fill:#000000;stroke-width:0.264583"
       d="m 218.54583,146.31456 v -3.70416 h 4.7625 4.7625 v -1.85209 -1.85208 h 4.7625 4.7625 v -1.85209 -1.85208 h -4.7625 -4.7625 v -1.85208 -1.85209 h -4.7625 -4.7625 v -7.40833 -7.40833 h 4.7625 4.7625 v -1.85209 -1.85208 h 9.525 9.525 v 3.70417 3.70417 h -9.525 -9.525 v 3.70416 3.70417 h 4.7625 4.7625 v 1.85208 1.85208 h 4.7625 4.7625 v 5.55625 5.55626 h -4.7625 -4.7625 v 3.70416 3.70417 h -9.525 -9.525 z"
       id="path293" />
    <path
       style="display:inline;fill:#000000;stroke-width:0.264583"
       d="m 170.92083,131.49789 v -18.52083 h 4.7625 4.7625 v 3.70417 3.70416 h 4.7625 4.7625 v -1.85208 -1.85208 h 4.7625 4.7625 v 1.85208 1.85208 h 4.7625 4.7625 v 14.81667 14.81667 h -4.7625 -4.7625 v -12.96459 -12.96458 h -4.7625 -4.7625 v 1.85208 1.85209 h -4.7625 -4.7625 v 11.1125 11.1125 h -4.7625 -4.7625 z"
       id="path291" />
    <path
       id="path287"
       style="display:inline;fill:#000000;stroke-width:0.264583"
       d="m 132.82083,148.16665 v -1.85209 h -4.7625 -4.7625 v -11.1125 -11.1125 h 9.525 9.525 v -1.85208 -1.85208 h -9.525 -9.525 v -3.70417 -3.70417 h 9.525 9.525 v 1.85208 1.85209 h 4.7625 4.7625 v 12.96458 12.96459 h 4.7625 4.7625 v 3.70416 3.70417 h -4.7625 -4.7625 v -1.85208 -1.85209 h -4.7625 -4.7625 v 1.85209 1.85208 h -4.7625 -4.7625 z m 9.525,-11.11251 v -5.55625 h -4.7625 -4.7625 v 5.55625 5.55626 h 4.7625 4.7625 z" />
    <path
       style="display:inline;fill:#000000;stroke-width:0.264583"
       d="M 85.19583,122.23748 V 94.456227 h 4.7625 4.7625 v 11.112503 11.1125 h 4.7625 4.7625 v -11.1125 -11.112503 h 4.7625 4.7625 v 27.781253 27.78125 h -4.7625 -4.7625 v -12.96459 -12.96458 h -4.7625 -4.7625 v 12.96458 12.96459 h -4.7625 -4.7625 z"
       id="path285" />
    <path
       style="display:inline;fill:#000000;stroke-width:0.264583"
       d="m 189.97083,201.87686 v -18.52063 h 4.7625 4.7625 v 3.70417 3.70416 h 4.7625 4.7625 v 1.85209 1.85208 h 4.7625 4.7625 v 3.70417 3.70416 h -4.7625 -4.7625 v -1.85208 -1.85208 h -4.7625 -4.7625 v 11.1125 11.1125 h -4.7625 -4.7625 z"
       id="path283" />
    <path
       id="path279"
       style="display:inline;fill:#000000;stroke-width:0.264583"
       d="m 161.39583,218.54561 v -1.85208 h -4.7625 -4.7625 V 201.87706 187.0604 h 4.7625 4.7625 v -1.85209 -1.85208 h 4.7625 4.7625 v 1.85208 1.85209 h 4.7625 4.7625 v 9.26041 9.26042 h -9.525 -9.525 v 3.70417 3.70416 h 9.525 9.525 v 3.70417 3.70417 h -9.525 -9.525 z m 9.525,-24.07708 v -3.70417 h -4.7625 -4.7625 v 3.70417 3.70417 h 4.7625 4.7625 z" />
    <path
       style="display:inline;fill:#000000;stroke-width:0.264583"
       d="m 123.29583,216.69353 v -3.70417 h -4.7625 -4.7625 V 198.1729 183.35623 h 4.7625 4.7625 v 12.96458 12.96459 h 4.7625 4.7625 v -12.96459 -12.96458 h 4.7625 4.7625 v 14.81667 14.81666 h -4.7625 -4.7625 v 3.70417 3.70417 h -4.7625 -4.7625 z"
       id="path277" />
    <path
       id="path273"
       style="display:inline;fill:#000000;stroke-width:0.264583"
       d="m 75.67083,194.46853 v -25.92897 h 4.7625 4.7625 v -1.85208 -1.85208 H 90.22292 95.25 v 1.85208 1.85208 h 4.49792 4.49791 v 25.92917 25.92917 h -4.7625 -4.7625 v -12.96459 -12.96458 h -4.7625 -4.7625 v 12.96458 12.96459 h -4.7625 -4.7625 z m 19.05,-12.96458 v -9.26042 h -4.7625 -4.7625 v 9.26042 9.26041 h 4.7625 4.7625 z" />
    <path
       style="display:inline;fill:#000000;stroke-width:0.264583"
       d="m 228.07083,242.6227 v -3.70417 h 9.525 9.525 v -9.26042 -9.26041 h -9.525 -9.525 v -18.52064 -18.52083 h 4.7625 4.7625 v 14.81667 14.81666 h 4.7625 4.7625 V 198.1729 183.35623 h 4.7625 4.7625 v 29.63333 29.63334 h -4.7625 -4.7625 v 1.85208 1.85208 h -9.525 -9.525 z"
       id="path271" />
    <path
       style="display:inline;fill:#000000;stroke-width:0.264583"
       d="m 75.67083,251.88312 v -1.85209 h 90.4875 90.4875 v 1.85209 1.85208 h -90.4875 -90.4875 z"
       id="path269" />
  </g>
</svg>
