<?xml version="1.0" encoding="UTF-8" standalone="no"?>
<svg
   xmlns:dc="http://purl.org/dc/elements/1.1/"
   xmlns:cc="http://creativecommons.org/ns#"
   xmlns:rdf="http://www.w3.org/1999/02/22-rdf-syntax-ns#"
   xmlns:svg="http://www.w3.org/2000/svg"
   xmlns="http://www.w3.org/2000/svg"
   xmlns:sodipodi="http://sodipodi.sourceforge.net/DTD/sodipodi-0.dtd"
   xmlns:inkscape="http://www.inkscape.org/namespaces/inkscape"
   width="314.32498mm"
   height="248.17896mm"
   viewBox="0 0 314.32498 248.17895"
   version="1.1"
   id="svg8"
   sodipodi:docname="splash.svg"
   inkscape:version="1.0.2 (1.0.2+r75+1)">
  <sodipodi:namedview
     pagecolor="#ffffff"
     bordercolor="#666666"
     borderopacity="1"
     objecttolerance="10"
     gridtolerance="10"
     guidetolerance="10"
     inkscape:pageopacity="0"
     inkscape:pageshadow="2"
     inkscape:window-width="1600"
     inkscape:window-height="845"
     id="namedview26"
     showgrid="false"
     inkscape:zoom="0.743071"
     inkscape:cx="593.99997"
     inkscape:cy="468.9996"
     inkscape:window-x="0"
     inkscape:window-y="27"
     inkscape:window-maximized="1"
     inkscape:current-layer="svg8" />
  <defs
     id="defs2" />
  <metadata
     id="metadata5">
    <rdf:RDF>
      <cc:Work
         rdf:about="">
        <dc:format>image/svg+xml</dc:format>
        <dc:type
           rdf:resource="http://purl.org/dc/dcmitype/StillImage" />
        <dc:title />
      </cc:Work>
    </rdf:RDF>
  </metadata>
  <path
     style="fill:#fdfd00;stroke-width:0.52916667;stroke:#000000;stroke-miterlimit:4;stroke-dasharray:none"
     d="m 257.175,207.43331 v -7.40833 h 4.7625 4.7625 v -11.1125 -11.1125 h 4.7625 4.7625 v -9.26042 -9.26042 H 271.4625 266.7 v -1.85208 -1.85208 h -4.7625 -4.7625 v -9.26039 -9.26042 h 4.7625 4.7625 v -11.1125 -11.1125 h 4.7625 4.7625 V 101.86459 88.900004 h 19.05 19.05 v 12.964586 12.96458 H 309.5625 304.8 v 5.55625 5.55625 h -4.7625 -4.7625 v 9.26042 9.26042 h -4.7625 -4.7625 v 5.55625 5.55625 h 4.7625 4.7625 v 1.85208 1.85208 h 4.7625 4.7625 v 9.26042 9.26042 h -4.7625 -4.7625 v 7.40833 7.40833 h -4.7625 -4.7625 v 3.70417 3.70417 h -4.7625 -4.7625 v 3.70416 3.70417 H 271.4625 266.7 v 3.70417 3.70416 h -4.7625 -4.7625 z"
     id="path195" />
  <path
     style="fill:#fdfd00;stroke-width:0.52916667;stroke:#000000;stroke-miterlimit:4;stroke-dasharray:none"
     d="m 47.624997,211.13748 v -3.70417 h -4.7625 -4.7625 v -3.70417 -3.70416 h -4.7625 -4.7625 v -3.70417 -3.70417 H 23.8125 19.05 v -7.40833 -7.40833 H 14.2875 9.525 v -9.26042 -9.26042 h 4.7625 4.7625 v -1.85208 -1.85208 h 4.7625 4.762497 v -5.55625 -5.55625 H 23.8125 19.05 v -9.26042 -9.26042 H 14.2875 9.525 v -5.55625 -5.55625 H 4.7625 0 V 101.86459 88.900004 h 19.05 19.049997 v 12.964586 12.96458 h 4.7625 4.7625 v 11.1125 11.1125 h 4.7625 4.7625 v 9.26042 9.26042 h -4.7625 -4.7625 v 1.85208 1.85208 h -4.7625 -4.7625 v 9.26042 9.26042 h 4.7625 4.7625 v 11.1125 11.1125 h 4.7625 4.7625 v 7.40833 7.40833 h -4.7625 -4.7625 z"
     id="path193" />
  <path
     id="path231"
     style="fill:#e5a000;stroke-width:0.52916667;stroke:#000000;stroke-miterlimit:4;stroke-dasharray:none"
     d="m 304.8,37.041669 v -7.408334 h -4.7625 -4.7625 v 7.408334 7.408333 h 4.7625 4.7625 z m -38.1,0 v -7.408334 h -4.7625 -4.7625 v 7.408334 7.408333 h 4.7625 4.7625 z m 0,37.041668 V 70.37917 h 4.7625 4.7625 v -9.260417 -9.260417 h -9.525 -9.525 v -1.852084 -1.852083 h -4.7625 -4.7625 v -11.1125 -11.112501 h 4.7625 4.7625 V 18.520834 11.112501 H 252.4125 247.65 V 5.55625 0 h 33.3375 33.3375 v 5.55625 5.556251 H 309.5625 304.8 v 7.408333 7.408334 h 4.7625 4.7625 v 11.112501 11.1125 H 309.5625 304.8 v 1.852083 1.852084 h -9.525 -9.525 v 9.260417 9.260417 h 4.7625 4.7625 v 3.704167 3.704167 H 280.9875 266.7 Z" />
  <path
     id="path223"
     style="fill:#e5a000;stroke-width:0.52916667;stroke:#000000;stroke-miterlimit:4;stroke-dasharray:none"
     d="m 57.149997,37.041669 v -7.408334 h -4.7625 -4.7625 v 7.408334 7.408333 h 4.7625 4.7625 z m -38.099997,0 V 29.633335 H 14.2875 9.525 v 7.408334 7.408333 h 4.7625 4.7625 z m 0,37.041668 V 70.37917 h 4.7625 4.762497 V 61.118753 51.858336 H 19.05 9.525 V 50.006252 48.154169 H 4.7625 0 V 37.041669 25.929168 H 4.7625 9.525 V 18.520834 11.112501 H 4.7625 0 V 5.55625 0 h 33.337497 33.3375 v 5.55625 5.556251 h -4.7625 -4.7625 v 7.408333 7.408334 h 4.7625 4.7625 v 11.112501 11.1125 h -4.7625 -4.7625 v 1.852083 1.852084 h -9.525 -9.525 v 9.260417 9.260417 h 4.7625 4.7625 v 3.704167 3.704167 H 33.337497 19.05 Z" />
  <path
     style="display:inline;fill:#000000;stroke-width:0.264583"
     d="M 276.225,31.485392 V 18.520808 H 271.4625 266.7 v -3.704167 -3.704167 h 4.7625 4.7625 V 9.260391 7.408307 h 4.7625 4.7625 v 18.520835 18.520834 h -4.7625 -4.7625 z"
     id="path311" />
  <path
     style="display:inline;fill:#000000;stroke-width:0.264583"
     d="M 28.574996,31.485392 V 18.520808 h -4.762497 -4.7625 v -3.704167 -3.704167 h 4.7625 4.762497 V 9.260391 7.408307 h 4.7625 4.7625 v 18.520835 18.520834 h -4.7625 -4.7625 z"
     id="path309" />
  <path
     id="path305"
     style="display:inline;fill:#000000;stroke-width:0.264583"
     d="m 209.55,76.199977 v -1.5875 h -4.38452 c -3.44715,0 -4.46534,-0.08081 -4.7625,-0.377976 C 200.08447,73.916017 200.025,71.543337 200.025,59.153277 V 44.450002 h 4.7625 4.7625 v -1.852083 -1.852084 h 5.02708 5.02709 v 1.852084 1.852083 h 4.49791 4.49792 v 9.260417 9.260417 h -9.525 -9.525 v 3.704167 3.704167 h 9.525 9.525 v 3.704167 3.704167 h -9.525 -9.525 v -1.5875 z m 9.525,-24.341668 v -3.704166 h -4.7625 -4.7625 v 3.704166 3.704167 h 4.7625 4.7625 z" />
  <path
     style="display:inline;fill:#000000;stroke-width:0.264583"
     d="M 171.45,75.935394 V 74.08331 h -4.7625 -4.7625 V 59.266643 44.449976 h 4.7625 4.7625 v -1.852084 -1.852083 h 9.525 9.525 v 3.704167 3.704167 h -9.525 -9.525 v 11.1125 11.112501 h 9.525 9.525 v 3.704166 3.704167 h -9.525 -9.525 z"
     id="path303" />
  <path
     id="path299"
     style="display:inline;fill:#000000;stroke-width:0.264583"
     d="m 123.825,76.199977 v -1.5875 h -4.38452 c -3.44714,0 -4.46534,-0.08081 -4.7625,-0.377976 C 114.36252,73.91907 114.3,72.037227 114.3,62.857444 V 51.858336 h 9.525 9.525 v -1.852084 -1.852083 h -9.525 -9.525 v -3.704167 -3.704167 h 9.525 9.525 v 1.852084 1.852083 h 4.7625 4.7625 V 57.414586 70.37917 h 4.7625 4.7625 v 3.704167 3.704167 h -4.7625 -4.7625 v -1.5875 -1.5875 h -4.49791 -4.49792 v 1.5875 1.5875 h -5.02708 -5.02709 v -1.5875 z m 9.525,-11.377084 v -5.55625 h -4.7625 -4.7625 v 5.55625 5.556251 h 4.7625 4.7625 z" />
  <path
     id="path295"
     style="display:inline;fill:#000000;stroke-width:0.264583"
     d="M 76.199996,50.006226 V 22.224975 h 9.525 9.525 v 1.852083 1.852084 h 4.762504 4.7625 v 9.260417 9.260417 h -4.7625 -4.762504 v 3.704167 3.704166 h 4.762504 4.7625 v 12.964584 12.964584 h -4.7625 -4.762504 v -11.1125 -11.112501 h -4.7625 -4.7625 v 11.112501 11.1125 h -4.7625 -4.7625 z m 19.05,-14.816667 v -5.556251 h -4.7625 -4.7625 v 5.556251 5.55625 h 4.7625 4.7625 z" />
  <path
     style="display:inline;fill:#000000;stroke-width:0.264583"
     d="m 209.55,140.75831 v -3.70416 h 4.7625 4.7625 v -1.85209 -1.85208 h 4.7625 4.7625 v -1.85209 -1.85208 h -4.7625 -4.7625 v -1.85208 -1.85209 h -4.7625 -4.7625 v -7.40833 -7.40833 h 4.7625 4.7625 v -1.85209 -1.85208 h 9.525 9.525 v 3.70417 3.70417 h -9.525 -9.525 v 3.70416 3.70417 h 4.7625 4.7625 v 1.85208 1.85208 h 4.7625 4.7625 v 5.55625 5.55626 H 233.3625 228.6 v 3.70416 3.70417 h -9.525 -9.525 z"
     id="path293" />
  <path
     style="display:inline;fill:#000000;stroke-width:0.264583"
     d="m 161.925,125.94164 v -18.52083 h 4.7625 4.7625 v 3.70417 3.70416 h 4.7625 4.7625 v -1.85208 -1.85208 h 4.7625 4.7625 v 1.85208 1.85208 h 4.7625 4.7625 v 14.81667 14.81667 H 195.2625 190.5 v -12.96459 -12.96458 h -4.7625 -4.7625 v 1.85208 1.85209 h -4.7625 -4.7625 v 11.1125 11.1125 h -4.7625 -4.7625 z"
     id="path291" />
  <path
     id="path287"
     style="display:inline;fill:#000000;stroke-width:0.264583"
     d="m 123.825,142.6104 v -1.85209 H 119.0625 114.3 v -11.1125 -11.1125 h 9.525 9.525 v -1.85208 -1.85208 h -9.525 -9.525 v -3.70417 -3.70417 h 9.525 9.525 v 1.85208 1.85209 h 4.7625 4.7625 v 12.96458 12.96459 h 4.7625 4.7625 v 3.70416 3.70417 h -4.7625 -4.7625 v -1.85208 -1.85209 h -4.7625 -4.7625 v 1.85209 1.85208 h -4.7625 -4.7625 z m 9.525,-11.11251 v -5.55625 h -4.7625 -4.7625 v 5.55625 5.55626 h 4.7625 4.7625 z" />
  <path
     style="display:inline;fill:#000000;stroke-width:0.264583"
     d="M 76.199996,116.68123 V 88.899978 h 4.7625 4.7625 v 11.112502 11.1125 h 4.7625 4.7625 v -11.1125 -11.112502 h 4.762504 4.7625 v 27.781252 27.78125 h -4.7625 -4.762504 v -12.96459 -12.96458 h -4.7625 -4.7625 v 12.96458 12.96459 h -4.7625 -4.7625 z"
     id="path285" />
  <path
     style="display:inline;fill:#000000;stroke-width:0.264583"
     d="m 180.975,196.32061 v -18.52063 h 4.7625 4.7625 v 3.70417 3.70416 h 4.7625 4.7625 v 1.85209 1.85208 h 4.7625 4.7625 v 3.70417 3.70416 h -4.7625 -4.7625 v -1.85208 -1.85208 H 195.2625 190.5 v 11.1125 11.1125 h -4.7625 -4.7625 z"
     id="path283" />
  <path
     id="path279"
     style="display:inline;fill:#000000;stroke-width:0.264583"
     d="m 152.4,212.98936 v -1.85208 h -4.7625 -4.7625 v -14.81647 -14.81666 h 4.7625 4.7625 v -1.85209 -1.85208 h 4.7625 4.7625 v 1.85208 1.85209 h 4.7625 4.7625 v 9.26041 9.26042 h -9.525 -9.525 v 3.70417 3.70416 h 9.525 9.525 v 3.70417 3.70417 h -9.525 -9.525 z m 9.525,-24.07708 v -3.70417 H 157.1625 152.4 v 3.70417 3.70417 h 4.7625 4.7625 z" />
  <path
     style="display:inline;fill:#000000;stroke-width:0.264583"
     d="m 114.3,211.13728 v -3.70417 h -4.7625 -4.7625 v -14.81646 -14.81667 h 4.7625 4.7625 v 12.96458 12.96459 h 4.7625 4.7625 v -12.96459 -12.96458 h 4.7625 4.7625 v 14.81667 14.81666 h -4.7625 -4.7625 v 3.70417 3.70417 H 119.0625 114.3 Z"
     id="path277" />
  <path
     id="path273"
     style="display:inline;fill:#000000;stroke-width:0.264583"
     d="m 66.674996,188.91228 v -25.92897 h 4.7625 4.7625 v -1.85208 -1.85208 h 5.02709 5.02708 v 1.85208 1.85208 h 4.49792 4.49791 v 25.92917 25.92917 h -4.7625 -4.7625 v -12.96459 -12.96458 h -4.7625 -4.7625 v 12.96458 12.96459 h -4.7625 -4.7625 z m 19.05,-12.96458 v -9.26042 h -4.7625 -4.7625 v 9.26042 9.26041 h 4.7625 4.7625 z" />
  <path
     style="display:inline;fill:#000000;stroke-width:0.264583"
     d="m 219.075,237.06645 v -3.70417 h 9.525 9.525 v -9.26042 -9.26041 h -9.525 -9.525 v -18.52064 -18.52083 h 4.7625 4.7625 v 14.81667 14.81666 h 4.7625 4.7625 v -14.81666 -14.81667 h 4.7625 4.7625 v 29.63333 29.63334 h -4.7625 -4.7625 v 1.85208 1.85208 h -9.525 -9.525 z"
     id="path271" />
  <path
     style="display:inline;fill:#000000;stroke-width:0.264583"
     d="m 66.674996,246.32687 v -1.85209 H 157.1625 247.65 v 1.85209 1.85208 H 157.1625 66.674996 Z"
     id="path269" />
</svg>
