<?xml version="1.0" encoding="UTF-8" standalone="no"?>
<svg
   xmlns:dc="http://purl.org/dc/elements/1.1/"
   xmlns:cc="http://creativecommons.org/ns#"
   xmlns:rdf="http://www.w3.org/1999/02/22-rdf-syntax-ns#"
   xmlns:svg="http://www.w3.org/2000/svg"
   xmlns="http://www.w3.org/2000/svg"
   xmlns:xlink="http://www.w3.org/1999/xlink"
   xmlns:sodipodi="http://sodipodi.sourceforge.net/DTD/sodipodi-0.dtd"
   xmlns:inkscape="http://www.inkscape.org/namespaces/inkscape"
   width="314.85416mm"
   height="225.95398mm"
   viewBox="0 0 314.85415 225.95397"
   version="1.1"
   id="svg8"
   sodipodi:docname="splash.svg"
   inkscape:version="1.0.2 (1.0.2+r75+1)">
  <sodipodi:namedview
     pagecolor="#ffffff"
     bordercolor="#666666"
     borderopacity="1"
     objecttolerance="10"
     gridtolerance="10"
     guidetolerance="10"
     inkscape:pageopacity="0"
     inkscape:pageshadow="2"
     inkscape:window-width="1600"
     inkscape:window-height="845"
     id="namedview26"
     showgrid="false"
     inkscape:zoom="0.62"
     inkscape:cx="694.96039"
     inkscape:cy="427.19852"
     inkscape:window-x="0"
     inkscape:window-y="27"
     inkscape:window-maximized="1"
     inkscape:current-layer="svg8" />
  <defs
     id="defs2" />
  <metadata
     id="metadata5">
    <rdf:RDF>
      <cc:Work
         rdf:about="">
        <dc:format>image/svg+xml</dc:format>
        <dc:type
           rdf:resource="http://purl.org/dc/dcmitype/StillImage" />
        <dc:title />
      </cc:Work>
    </rdf:RDF>
  </metadata>
  <use
     x="0"
     y="0"
     xlink:href="#path305"
     id="use881"
     transform="translate(-57.15,137.05415)"
     width="100%"
     height="100%" />
  <use
     x="0"
     y="0"
     xlink:href="#path299"
     id="use879"
     transform="translate(0,66.674975)"
     width="100%"
     height="100%" />
  <use
     x="0"
     y="0"
     xlink:href="#path195"
     id="use877"
     transform="matrix(-1,0,0,1,314.85416,0)"
     width="100%"
     height="100%" />
  <path
     style="fill:#fdfd00;stroke:#000000;stroke-width:0.529167;stroke-miterlimit:4;stroke-dasharray:none"
     d="m 257.43958,207.69789 v -7.40833 h 4.7625 4.7625 v -11.1125 -11.1125 h 4.7625 4.7625 v -9.26042 -9.26042 h -4.7625 -4.7625 v -1.85208 -1.85208 h -4.7625 -4.7625 v -9.26039 -9.26042 h 4.7625 4.7625 v -11.1125 -11.1125 h 4.7625 4.7625 V 102.12917 89.164587 h 19.05 19.05 v 12.964583 12.96458 h -4.7625 -4.7625 v 5.55625 5.55625 h -4.7625 -4.7625 v 9.26042 9.26042 h -4.7625 -4.7625 v 5.55625 5.55625 h 4.7625 4.7625 v 1.85208 1.85208 h 4.7625 4.7625 v 9.26042 9.26042 h -4.7625 -4.7625 v 7.40833 7.40833 h -4.7625 -4.7625 v 3.70417 3.70417 h -4.7625 -4.7625 v 3.70416 3.70417 h -4.7625 -4.7625 v 3.70417 3.70416 h -4.7625 -4.7625 z"
     id="path195" />
  <g
     id="g1514">
    <path
       id="path231"
       style="fill:#e5a000;stroke:#000000;stroke-width:0.529167;stroke-miterlimit:4;stroke-dasharray:none"
       d="m 305.06458,37.306252 v -7.408334 h -4.7625 -4.7625 v 7.408334 7.408333 h 4.7625 4.7625 z m -38.1,0 v -7.408334 h -4.7625 -4.7625 v 7.408334 7.408333 h 4.7625 4.7625 z m 0,37.041668 v -3.704166 h 4.7625 4.7625 v -9.260418 -9.260417 h -9.525 -9.525 v -1.852084 -1.852083 h -4.7625 -4.7625 v -11.1125 -11.112501 h 4.7625 4.7625 v -7.408334 -7.408332 h -4.7625 -4.7625 v -5.5562515 -5.55625 h 33.3375 33.3375 v 5.55625 5.5562515 h -4.7625 -4.7625 v 7.408332 7.408334 h 4.7625 4.7625 v 11.112501 11.1125 h -4.7625 -4.7625 v 1.852083 1.852084 h -9.525 -9.525 v 9.260417 9.260418 h 4.7625 4.7625 v 3.704166 3.704167 h -14.2875 -14.2875 z" />
    <path
       style="display:inline;fill:#000000;stroke-width:0.264583"
       d="M 276.48958,31.749976 V 18.785391 h -4.7625 -4.7625 v -3.704167 -3.704167 h 4.7625 4.7625 V 9.5249745 7.6728905 h 4.7625 4.7625 V 26.193726 44.71456 h -4.7625 -4.7625 z"
       id="path311" />
  </g>
  <path
     id="path305"
     style="display:inline;fill:#000000;stroke-width:0.264583"
     d="m 209.81458,53.975002 v -1.5875 h -4.38452 c -3.44715,0 -4.46534,-0.08081 -4.7625,-0.377976 -0.31851,-0.318484 -0.37798,-2.691164 -0.37798,-15.081224 V 22.225027 h 4.7625 4.7625 V 20.372944 18.52086 h 5.02708 5.02709 v 1.852084 1.852083 h 4.49791 4.49792 v 9.260417 9.260417 h -9.525 -9.525 v 3.704167 3.704167 h 9.525 9.525 v 3.704167 3.704167 h -9.525 -9.525 v -1.5875 z m 9.525,-24.341668 v -3.704166 h -4.7625 -4.7625 v 3.704166 3.704167 h 4.7625 4.7625 z" />
  <path
     style="display:inline;fill:#000000;stroke-width:0.264583"
     d="m 171.71458,53.710419 v -1.852084 h -4.7625 -4.7625 V 37.041668 22.225001 h 4.7625 4.7625 v -1.852084 -1.852083 h 9.525 9.525 v 3.704167 3.704167 h -9.525 -9.525 v 11.1125 11.112501 h 9.525 9.525 v 3.704166 3.704167 h -9.525 -9.525 z"
     id="path303" />
  <path
     id="path299"
     style="display:inline;fill:#000000;stroke-width:0.264583"
     d="m 124.08958,53.975002 v -1.5875 h -4.38452 c -3.44714,0 -4.46534,-0.08081 -4.7625,-0.377976 -0.31546,-0.315431 -0.37798,-2.197274 -0.37798,-11.377057 V 29.633361 h 9.525 9.525 v -1.852084 -1.852083 h -9.525 -9.525 V 22.225027 18.52086 h 9.525 9.525 v 1.852084 1.852083 h 4.7625 4.7625 v 12.964584 12.964584 h 4.7625 4.7625 v 3.704167 3.704167 h -4.7625 -4.7625 v -1.5875 -1.5875 h -4.49791 -4.49792 v 1.5875 1.5875 h -5.02708 -5.02709 v -1.5875 z m 9.525,-11.377084 v -5.55625 h -4.7625 -4.7625 v 5.55625 5.556251 h 4.7625 4.7625 z" />
  <path
     id="path295"
     style="display:inline;fill:#000000;stroke-width:0.264583"
     d="M 76.464579,27.781251 V 4.9823952e-7 h 9.525 9.525 V 1.8520835 3.7041675 h 4.762501 4.7625 v 9.2604165 9.260417 h -4.7625 -4.762501 v 3.704167 3.704166 h 4.762501 4.7625 v 12.964584 12.964584 h -4.7625 -4.762501 v -11.1125 -11.112501 h -4.7625 -4.7625 v 11.112501 11.1125 h -4.7625 -4.7625 z m 19.05,-14.816667 V 7.4083335 h -4.7625 -4.7625 v 5.5562505 5.55625 h 4.7625 4.7625 z" />
  <path
     style="display:inline;fill:#000000;stroke-width:0.264583"
     d="m 209.81458,118.53334 v -3.70416 h 4.7625 4.7625 v -1.85209 -1.85208 h 4.7625 4.7625 v -1.85209 -1.85208 h -4.7625 -4.7625 v -1.85208 -1.85209 h -4.7625 -4.7625 v -7.408335 -7.40833 h 4.7625 4.7625 v -1.85209 -1.85208 h 9.525 9.525 v 3.70417 3.70417 h -9.525 -9.525 v 3.70416 3.704175 h 4.7625 4.7625 v 1.85208 1.85208 h 4.7625 4.7625 v 5.55625 5.55626 h -4.7625 -4.7625 v 3.70416 3.70417 h -9.525 -9.525 z"
     id="path293" />
  <path
     style="display:inline;fill:#000000;stroke-width:0.264583"
     d="M 162.18958,103.71667 V 85.195835 h 4.7625 4.7625 v 3.70417 3.70416 h 4.7625 4.7625 v -1.85208 -1.85208 h 4.7625 4.7625 v 1.85208 1.85208 h 4.7625 4.7625 v 14.816675 14.81667 h -4.7625 -4.7625 V 109.27292 96.308335 h -4.7625 -4.7625 v 1.85208 1.852095 h -4.7625 -4.7625 v 11.1125 11.1125 h -4.7625 -4.7625 z"
     id="path291" />
  <path
     style="display:inline;fill:#000000;stroke-width:0.264583"
     d="M 76.464579,94.456255 V 66.675003 h 4.7625 4.7625 v 11.112502 11.1125 h 4.7625 4.7625 v -11.1125 -11.112502 h 4.762501 4.7625 v 27.781252 27.781255 h -4.7625 -4.762501 V 109.27292 96.308335 h -4.7625 -4.7625 v 12.964585 12.96459 h -4.7625 -4.7625 z"
     id="path285" />
  <path
     style="display:inline;fill:#000000;stroke-width:0.264583"
     d="m 181.23958,174.09564 v -18.52063 h 4.7625 4.7625 v 3.70417 3.70416 h 4.7625 4.7625 v 1.85209 1.85208 h 4.7625 4.7625 v 3.70417 3.70416 h -4.7625 -4.7625 v -1.85208 -1.85208 h -4.7625 -4.7625 v 11.1125 11.1125 h -4.7625 -4.7625 z"
     id="path283" />
  <path
     style="display:inline;fill:#000000;stroke-width:0.264583"
     d="m 114.56458,188.91231 v -3.70417 h -4.7625 -4.7625 v -14.81646 -14.81667 h 4.7625 4.7625 v 12.96458 12.96459 h 4.7625 4.7625 v -12.96459 -12.96458 h 4.7625 4.7625 v 14.81667 14.81666 h -4.7625 -4.7625 v 3.70417 3.70417 h -4.7625 -4.7625 z"
     id="path277" />
  <path
     id="path273"
     style="display:inline;fill:#000000;stroke-width:0.264583"
     d="m 66.939579,166.68731 v -25.92897 h 4.7625 4.7625 v -1.85208 -1.85208 h 5.02709 5.02708 v 1.85208 1.85208 h 4.49792 4.49791 v 25.92917 25.92917 h -4.7625 -4.7625 v -12.96459 -12.96458 h -4.7625 -4.7625 v 12.96458 12.96459 h -4.7625 -4.7625 z m 19.05,-12.96458 v -9.26042 h -4.7625 -4.7625 v 9.26042 9.26041 h 4.7625 4.7625 z" />
  <path
     style="display:inline;fill:#000000;stroke-width:0.264583"
     d="m 219.33958,214.84148 v -3.70417 h 9.525 9.525 v -9.26042 -9.26041 h -9.525 -9.525 v -18.52064 -18.52083 h 4.7625 4.7625 v 14.81667 14.81666 h 4.7625 4.7625 v -14.81666 -14.81667 h 4.7625 4.7625 v 29.63333 29.63334 h -4.7625 -4.7625 v 1.85208 1.85208 h -9.525 -9.525 z"
     id="path271" />
  <path
     style="display:inline;fill:#000000;stroke-width:0.264583"
     d="m 66.939579,224.1019 v -1.85209 h 90.487501 90.4875 v 1.85209 1.85208 h -90.4875 -90.487501 z"
     id="path269" />
  <use
     x="0"
     y="0"
     xlink:href="#g1514"
     id="use1516"
     transform="translate(-247.65)"
     width="100%"
     height="100%" />
</svg>
